<svg width="235" height="62" viewBox="0 0 235 62" fill="none" xmlns="http://www.w3.org/2000/svg">
<mask id="path-1-inside-1_6_37" fill="white">
<path d="M0 31C0 14.1553 13.6553 0.5 30.5 0.5H204.5C221.345 0.5 235 14.1553 235 31C235 47.8447 221.345 61.5 204.5 61.5H30.5C13.6553 61.5 0 47.8447 0 31Z"/>
</mask>
<path d="M0 31C0 14.1553 13.6553 0.5 30.5 0.5H204.5C221.345 0.5 235 14.1553 235 31C235 47.8447 221.345 61.5 204.5 61.5H30.5C13.6553 61.5 0 47.8447 0 31Z" fill="#913F3F"/>
<path d="M30.5 1.5H204.5V-0.5H30.5V1.5ZM204.5 60.5H30.5V62.5H204.5V60.5ZM30.5 60.5C14.2076 60.5 1 47.2924 1 31H-1C-1 48.397 13.103 62.5 30.5 62.5V60.5ZM234 31C234 47.2924 220.792 60.5 204.5 60.5V62.5C221.897 62.5 236 48.397 236 31H234ZM204.5 1.5C220.792 1.5 234 14.7076 234 31H236C236 13.603 221.897 -0.5 204.5 -0.5V1.5ZM30.5 -0.5C13.103 -0.5 -1 13.603 -1 31H1C1 14.7076 14.2076 1.5 30.5 1.5V-0.5Z" fill="#0D7650" fill-opacity="0.94" mask="url(#path-1-inside-1_6_37)"/>
</svg>
