<svg width="909" height="772" viewBox="0 0 909 772" fill="none" xmlns="http://www.w3.org/2000/svg">
<g filter="url(#filter0_d_6_186)">
<path d="M40 63C40 50.2974 50.2975 40 63 40H846C858.703 40 869 50.2974 869 63V709C869 721.703 858.703 732 846 732H63C50.2975 732 40 721.703 40 709V63Z" fill="#0D7650" fill-opacity="0.94" shape-rendering="crispEdges"/>
</g>
<g filter="url(#filter1_d_6_186)">
<path d="M40 63C40 50.2974 50.2975 40 63 40H846C858.703 40 869 50.2974 869 63V709C869 721.703 858.703 732 846 732H63C50.2975 732 40 721.703 40 709V63Z" fill="#0D7650" fill-opacity="0.94" shape-rendering="crispEdges"/>
</g>
<defs>
<filter id="filter0_d_6_186" x="0" y="-3.05176e-05" width="909" height="772" filterUnits="userSpaceOnUse" color-interpolation-filters="sRGB">
<feFlood flood-opacity="0" result="BackgroundImageFix"/>
<feColorMatrix in="SourceAlpha" type="matrix" values="0 0 0 0 0 0 0 0 0 0 0 0 0 0 0 0 0 0 127 0" result="hardAlpha"/>
<feOffset/>
<feGaussianBlur stdDeviation="20"/>
<feComposite in2="hardAlpha" operator="out"/>
<feColorMatrix type="matrix" values="0 0 0 0 0 0 0 0 0 0 0 0 0 0 0 0 0 0 0.1 0"/>
<feBlend mode="normal" in2="BackgroundImageFix" result="effect1_dropShadow_6_186"/>
<feBlend mode="normal" in="SourceGraphic" in2="effect1_dropShadow_6_186" result="shape"/>
</filter>
<filter id="filter1_d_6_186" x="0" y="-3.05176e-05" width="909" height="772" filterUnits="userSpaceOnUse" color-interpolation-filters="sRGB">
<feFlood flood-opacity="0" result="BackgroundImageFix"/>
<feColorMatrix in="SourceAlpha" type="matrix" values="0 0 0 0 0 0 0 0 0 0 0 0 0 0 0 0 0 0 127 0" result="hardAlpha"/>
<feOffset/>
<feGaussianBlur stdDeviation="20"/>
<feComposite in2="hardAlpha" operator="out"/>
<feColorMatrix type="matrix" values="0 0 0 0 0 0 0 0 0 0 0 0 0 0 0 0 0 0 0.1 0"/>
<feBlend mode="normal" in2="BackgroundImageFix" result="effect1_dropShadow_6_186"/>
<feBlend mode="normal" in="SourceGraphic" in2="effect1_dropShadow_6_186" result="shape"/>
</filter>
</defs>
</svg>
